<?xml version="1.0" encoding="utf-8"?>
<!-- Svg Vector Icons : http://www.onlinewebfonts.com/icon -->
<!DOCTYPE svg PUBLIC "-//W3C//DTD SVG 1.1//EN" "http://www.w3.org/Graphics/SVG/1.1/DTD/svg11.dtd">
<svg version="1.1" xmlns="http://www.w3.org/2000/svg" xmlns:xlink="http://www.w3.org/1999/xlink" x="0px" y="0px" viewBox="0 0 256 256" enable-background="new 0 0 256 256" xml:space="preserve">
<metadata> Svg Vector Icons : http://www.onlinewebfonts.com/icon </metadata>
<g><g><g><g><path fill="#000000" d="M246,193.3c-5.9-33-30.4-59.5-63.1-69.3c10.4-8.3,16.5-21,16.5-34.5c0-24.4-19.9-44.3-44.3-44.3c-4.3,0-7.4,0.6-10.6,1.5c-1.3,0.4-2.3,1.5-2.5,2.8c-0.2,1.4,0.5,2.7,1.7,3.4c18.4,10.6,21.6,28.8,21.8,38.7c0.3,11.4-4.6,26.9-15.9,33.7c-1.2,0.7-1.8,2-1.6,3.4c0.2,1.3,1.2,2.5,2.5,2.8c29.5,7.6,52.6,30.9,63.4,63.6c0.5,1.4,1.8,2.6,3.2,2.6h25.5c1,0,2-0.7,2.6-1.4C245.9,195.6,246.1,194.3,246,193.3z M219.6,191c-11-32.4-32.9-54.4-61-63.8c7.7-7.4,14-20,13.6-35.5c-0.4-16.4-6.7-30.1-18-39.5c0.3,0,0.6,0,0.9,0c20.7,0,37.5,16.8,37.5,37.4c0,13.7-7.5,26.3-19.6,32.9c-1.3,0.7-2,2.1-1.7,3.5c0.2,1.4,1.3,2.8,2.6,3.1c32.4,7,57.4,31.4,64.5,62H219.6L219.6,191z"/><path fill="#000000" d="M142.2,131.2c11.9-9.3,19.1-23.6,19.1-39c0-27.2-22.2-49.4-49.4-49.4c-27.2,0-49.4,22.2-49.4,49.4c0,15.4,7.2,29.7,19.1,39C44.5,142.1,16.8,172,10,209.1c-0.2,1,0.1,2,0.7,2.8c0.7,0.8,1.6,1.2,2.6,1.2h197c1,0,2-0.4,2.6-1.2c0.7-0.8,0.9-1.8,0.7-2.8C207,172,179.3,142.1,142.2,131.2z M17.6,206.3c8-35.8,36.2-62.4,73.1-70.4c1.4-0.3,2.5-1.4,2.6-2.8c0.2-1.4-0.5-2.8-1.7-3.5c-13.7-7.5-22.2-21.8-22.2-37.4c0-23.5,19.1-42.6,42.6-42.6s42.6,19.1,42.6,42.6c0,15.6-8.5,29.9-22.2,37.4c-1.3,0.7-2,2.1-1.7,3.5c0.2,1.4,1.3,2.6,2.6,2.8c36.8,7.9,65.1,34.6,73.1,70.4H17.6L17.6,206.3z"/></g></g><g></g><g></g><g></g><g></g><g></g><g></g><g></g><g></g><g></g><g></g><g></g><g></g><g></g><g></g><g></g></g></g>
</svg>